# xmcd
#
# Track frame offsets:
#	150
#	17440
#	35367
#	53361
#	70430
#	84757
#	103809
#	120654
#	142002
#	159837
#	174098
#	190459
#	206735
#	225113
#	239677
#	259553
#	278981
#	307694
#
# Disc length: 4117 seconds
#
# Revision: 0
# Processed by: cddbd v1.5.1PL0 Copyright (c) Steve Scherf et al.
# Submitted via: audiograbber 1.83.01
#
DISCID=e0101312
DTITLE=Various Artist - CBESP 5042-01
DYEAR=1900
DGENRE=Karaoke
TTITLE0=Gretchen Wilson - Redneck Woman
TTITLE1=Sara Evans - Suds In The Bucket
TTITLE2=Reba McEntire - Somebody
TTITLE3=Rhonda Vincent - If Heartaches Had Wings
TTITLE4=Amy Dalley - Men Don't Change
TTITLE5=Julie Roberts - Break Down Here
TTITLE6=Terri Clark - Girls Lie Too
TTITLE7=Wynonna - Flies On The Butter
TTITLE8=Rachel Proctor - Me and Emily
TTITLE9=Trick Pony - The Bride
TTITLE10=Jill King - 98.6 Degrees and Falling
TTITLE11=SheDaisy - Passenger Seat
TTITLE12=Anita Cochran/Conway Twitty - I Wanna Hear A Cheatin Song
TTITLE13=Lee Ann Womack - The Wrong Girl
TTITLE14=Dolly Parton - Welcome Home
TTITLE15=Sherrie Austin - Drivin Into The Sun
TTITLE16=The Jenkins - Blame It On Mama
TTITLE17=Data - Data
EXTD=
EXTT0=
EXTT1=
EXTT2=
EXTT3=
EXTT4=
EXTT5=
EXTT6=
EXTT7=
EXTT8=
EXTT9=
EXTT10=
EXTT11=
EXTT12=
EXTT13=
EXTT14=
EXTT15=
EXTT16=
EXTT17=
PLAYORDER=
